<svg width="30" height="30" viewBox="0 0 30 30" fill="none" xmlns="http://www.w3.org/2000/svg">
<path d="M9.35285 8.33823C11.1864 4.90032 12.1032 3.18136 13.3239 2.61804C14.3874 2.12732 15.6124 2.12732 16.6759 2.61804C17.8966 3.18136 18.8134 4.90032 20.647 8.33824L25.9803 18.3382C27.636 21.4426 28.4638 22.9948 28.3004 24.2617C28.1578 25.3674 27.5601 26.3635 26.6516 27.0096C25.6106 27.75 23.8515 27.75 20.3332 27.75H9.66657C6.14831 27.75 4.38917 27.75 3.34821 27.0096C2.43967 26.3635 1.84205 25.3674 1.69943 24.2617C1.53603 22.9948 2.36386 21.4426 4.01951 18.3382L9.35285 8.33823Z" fill="#FFE9E9"/>
<path fill-rule="evenodd" clip-rule="evenodd" d="M12.905 1.71005C14.2343 1.09665 15.7657 1.09665 17.095 1.71005C17.9687 2.11322 18.631 2.88241 19.2674 3.85104C19.9036 4.81927 20.6087 6.1414 21.5042 7.82034L26.8874 17.9139C27.6944 19.4269 28.3329 20.6241 28.7442 21.6009C29.1585 22.5848 29.4083 23.4898 29.2922 24.3896C29.114 25.7718 28.3669 27.0168 27.2313 27.8245C26.492 28.3504 25.5759 28.5558 24.5128 28.6533C23.4573 28.75 22.1005 28.75 20.3857 28.75H9.61425C7.89951 28.75 6.54263 28.75 5.48721 28.6533C4.42406 28.5558 3.50802 28.3504 2.7687 27.8245C1.63303 27.0168 0.886 25.7718 0.707732 24.3896C0.59168 23.4898 0.841464 22.5848 1.25579 21.6009C1.6671 20.6241 2.30563 19.4269 3.11256 17.9139L8.49575 7.82045C9.3912 6.14146 10.0963 4.8193 10.7325 3.85104C11.369 2.88241 12.0313 2.11322 12.905 1.71005ZM16.257 3.52603C15.4594 3.15799 14.5406 3.15799 13.743 3.52603C13.396 3.68618 12.9895 4.05813 12.404 4.94929C11.8242 5.83176 11.1614 7.07233 10.2353 8.80882L4.90195 18.8088C4.0649 20.3783 3.47052 21.4949 3.09903 22.3771C2.72638 23.2621 2.64395 23.7666 2.6913 24.1338C2.79826 24.9631 3.24648 25.7101 3.92788 26.1947C4.22953 26.4093 4.71354 26.574 5.66976 26.6616C6.62299 26.749 7.88792 26.75 9.66666 26.75H20.3333C22.1121 26.75 23.377 26.749 24.3302 26.6616C25.2864 26.574 25.7704 26.4093 26.0721 26.1947C26.7535 25.7101 27.2017 24.9631 27.3087 24.1338C27.356 23.7666 27.2736 23.2621 26.9009 22.3771C26.5295 21.4949 25.9351 20.3783 25.098 18.8088L19.7647 8.80882C18.8386 7.07233 18.1758 5.83176 17.596 4.94929C17.0104 4.05813 16.604 3.68618 16.257 3.52603Z" fill="#F90000"/>
<path fill-rule="evenodd" clip-rule="evenodd" d="M13.8001 11.1079C13.8001 10.4452 14.3374 9.9079 15.0001 9.9079C15.6628 9.9079 16.2001 10.4452 16.2001 11.1079L16.1998 18.4019C16.1998 19.0646 15.6625 19.6019 14.9998 19.6019C14.337 19.6019 13.7998 19.0646 13.7998 18.4019L13.8001 11.1079ZM13.7998 21.8764C13.7998 21.2137 14.337 20.6764 14.9998 20.6764C15.6625 20.6764 16.1998 21.2137 16.1998 21.8764V21.9155C16.1998 22.5782 15.6625 23.1155 14.9998 23.1155C14.337 23.1155 13.7998 22.5782 13.7998 21.9155L13.7998 21.8764Z" fill="#F90000"/>
</svg>
