<svg width="30" height="30" viewBox="0 0 30 30" fill="none" xmlns="http://www.w3.org/2000/svg">
<path d="M2 14.8C2 10.3196 2 8.07937 2.87195 6.36808C3.63893 4.86278 4.86278 3.63893 6.36808 2.87195C8.07937 2 10.3196 2 14.8 2H15.2C19.6804 2 21.9206 2 23.6319 2.87195C25.1372 3.63893 26.3611 4.86278 27.1281 6.36808C28 8.07937 28 10.3196 28 14.8V15.2C28 19.6804 28 21.9206 27.1281 23.6319C26.3611 25.1372 25.1372 26.3611 23.6319 27.1281C21.9206 28 19.6804 28 15.2 28H14.8C10.3196 28 8.07937 28 6.36808 27.1281C4.86278 26.3611 3.63893 25.1372 2.87195 23.6319C2 21.9206 2 19.6804 2 15.2V14.8Z" fill="#F7F8FA"/>
<path fill-rule="evenodd" clip-rule="evenodd" d="M14.7547 1H15.2453C17.4472 0.999995 19.161 0.999991 20.5358 1.11231C21.9317 1.22636 23.0658 1.46117 24.0859 1.98094C25.7794 2.8438 27.1562 4.22063 28.0191 5.91409C28.5388 6.9342 28.7736 8.06833 28.8877 9.46418C29 10.839 29 12.5528 29 14.7547V15.2453C29 17.4472 29 19.161 28.8877 20.5358C28.7736 21.9317 28.5388 23.0658 28.0191 24.0859C27.1562 25.7794 25.7794 27.1562 24.0859 28.0191C23.0658 28.5388 21.9317 28.7736 20.5358 28.8877C19.161 29 17.4472 29 15.2453 29H14.7547C12.5528 29 10.839 29 9.46418 28.8877C8.06833 28.7736 6.9342 28.5388 5.91409 28.0191C4.22063 27.1562 2.8438 25.7794 1.98094 24.0859C1.46117 23.0658 1.22636 21.9317 1.11231 20.5358C0.999991 19.161 0.999995 17.4472 1 15.2453V14.7547C0.999995 12.5528 0.999991 10.839 1.11231 9.46418C1.22636 8.06833 1.46117 6.9342 1.98094 5.91409C2.8438 4.22063 4.22063 2.8438 5.91409 1.98094C6.9342 1.46117 8.06833 1.22636 9.46418 1.11231C10.839 0.999991 12.5528 0.999995 14.7547 1ZM9.62705 3.10567C8.35487 3.20961 7.51325 3.41078 6.82207 3.76295C5.50493 4.43407 4.43407 5.50493 3.76295 6.82207C3.41078 7.51325 3.20961 8.35487 3.10567 9.62705C3.00078 10.9109 3 12.5433 3 14.8V15.2C3 17.4567 3.00078 19.0891 3.10567 20.373C3.20961 21.6451 3.41078 22.4868 3.76295 23.1779C4.43407 24.4951 5.50493 25.5659 6.82207 26.237C7.51325 26.5892 8.35487 26.7904 9.62705 26.8943C10.9109 26.9992 12.5433 27 14.8 27H15.2C17.4567 27 19.0891 26.9992 20.373 26.8943C21.6451 26.7904 22.4868 26.5892 23.1779 26.237C24.4951 25.5659 25.5659 24.4951 26.237 23.1779C26.5892 22.4868 26.7904 21.6451 26.8943 20.373C26.9992 19.0891 27 17.4567 27 15.2V14.8C27 12.5433 26.9992 10.9109 26.8943 9.62705C26.7904 8.35487 26.5892 7.51325 26.237 6.82207C25.5659 5.50493 24.4951 4.43407 23.1779 3.76295C22.4868 3.41078 21.6451 3.20961 20.373 3.10567C19.0891 3.00078 17.4567 3 15.2 3H14.8C12.5433 3 10.9109 3.00078 9.62705 3.10567Z" fill="#8D9196"/>
<path fill-rule="evenodd" clip-rule="evenodd" d="M26.2899 4.13793C26.766 4.63784 26.7467 5.42907 26.2468 5.90517L5.24683 25.9052C4.74692 26.3813 3.9557 26.362 3.47959 25.8621C3.00349 25.3622 3.02278 24.5709 3.5227 24.0948L24.5227 4.09483C25.0226 3.61872 25.8138 3.63802 26.2899 4.13793Z" fill="#8D9196"/>
</svg>
