<svg width="30" height="30" viewBox="0 0 30 30" fill="none" xmlns="http://www.w3.org/2000/svg">
<rect x="1" y="1" width="28" height="28" rx="8" fill="#062A4F"/>
<path d="M15.1523 16.1934H16.7637C16.7207 16.7637 16.5625 17.2695 16.2891 17.7109C16.0156 18.1484 15.6348 18.4922 15.1465 18.7422C14.6582 18.9922 14.0664 19.1172 13.3711 19.1172C12.8359 19.1172 12.3535 19.0234 11.9238 18.8359C11.498 18.6445 11.1328 18.373 10.8281 18.0215C10.5273 17.666 10.2969 17.2402 10.1367 16.7441C9.97656 16.2441 9.89648 15.6836 9.89648 15.0625V14.4121C9.89648 13.791 9.97852 13.2305 10.1426 12.7305C10.3066 12.2305 10.541 11.8047 10.8457 11.4531C11.1543 11.0977 11.5234 10.8242 11.9531 10.6328C12.3867 10.4414 12.8711 10.3457 13.4062 10.3457C14.1016 10.3457 14.6895 10.4746 15.1699 10.7324C15.6504 10.9863 16.0234 11.3359 16.2891 11.7812C16.5547 12.2266 16.7148 12.7383 16.7695 13.3164H15.1582C15.127 12.957 15.0488 12.6523 14.9238 12.4023C14.8027 12.1523 14.6191 11.9629 14.373 11.834C14.1309 11.7012 13.8086 11.6348 13.4062 11.6348C13.0938 11.6348 12.8184 11.6934 12.5801 11.8105C12.3457 11.9277 12.1504 12.1035 11.9941 12.3379C11.8379 12.5684 11.7207 12.8574 11.6426 13.2051C11.5645 13.5488 11.5254 13.9473 11.5254 14.4004V15.0625C11.5254 15.4961 11.5605 15.8848 11.6309 16.2285C11.7012 16.5723 11.8105 16.8633 11.959 17.1016C12.1074 17.3398 12.2988 17.5215 12.5332 17.6465C12.7676 17.7715 13.0469 17.834 13.3711 17.834C13.7656 17.834 14.0859 17.7715 14.332 17.6465C14.582 17.5215 14.7715 17.3379 14.9004 17.0957C15.0332 16.8535 15.1172 16.5527 15.1523 16.1934ZM19.7285 10.4688V19H18.1172V10.4688H19.7285Z" fill="white"/>
</svg>
